<svg width="10" height="19" viewBox="0 0 10 19" fill="black"   xmlns="http://www.w3.org/2000/svg">
<path d="M9.14165 15.725C8.92245 15.725 8.70326 15.829 8.57432 16.0109C7.83938 16.9726 6.66605 17.5964 5.36379 17.5964C3.15896 17.5964 1.36673 15.842 1.36673 13.6977V5.41929C1.36673 3.27497 3.17185 1.52052 5.36379 1.52052C6.70473 1.52052 7.89095 2.17031 8.6259 3.158C8.76773 3.33995 8.97403 3.45691 9.20611 3.45691H9.28348C9.8508 3.45691 10.1989 2.80711 9.87659 2.33926C8.92245 0.935705 7.29784 0 5.45404 0H5.29932C2.38534 0 0 2.32626 0 5.15937V13.8406C0 16.6737 2.38534 19 5.29932 19H5.45404C7.20759 19 8.75483 18.1683 9.72186 16.8817C10.0571 16.4138 9.73476 15.725 9.14165 15.725Z" fill="black"/>
</svg>
