<svg width="157" height="66" viewBox="0 0 157 66" fill="none" xmlns="http://www.w3.org/2000/svg">
<g filter="url(#filter0_d_1_30)">
<rect width="117.788" height="38.5487" rx="19.2743" transform="matrix(1 0 0 -1 26 50.9999)" fill="black"/>
</g>
<path d="M47.1296 27.8276V30.2776H50.4196V31.8316H47.1296V34.4216H50.8396V36.0176H45.1696V26.2316H50.8396V27.8276H47.1296ZM56.9047 36.0176L55.3087 33.6096L53.8947 36.0176H51.7947L54.3287 32.1256L51.7667 28.2616H53.9787L55.5607 30.6556L56.9887 28.2616H59.0887L56.5407 32.1256L59.1167 36.0176H56.9047ZM62.1413 29.3816C62.3933 29.027 62.7386 28.733 63.1773 28.4996C63.6253 28.257 64.1339 28.1356 64.7033 28.1356C65.3659 28.1356 65.9633 28.299 66.4953 28.6256C67.0366 28.9523 67.4613 29.419 67.7693 30.0256C68.0866 30.623 68.2453 31.3183 68.2453 32.1116C68.2453 32.905 68.0866 33.6096 67.7693 34.2256C67.4613 34.8323 67.0366 35.3036 66.4953 35.6396C65.9633 35.9756 65.3659 36.1436 64.7033 36.1436C64.1339 36.1436 63.6299 36.027 63.1913 35.7936C62.7619 35.5603 62.4119 35.2663 62.1413 34.9116V39.7136H60.1813V28.2616H62.1413V29.3816ZM66.2433 32.1116C66.2433 31.645 66.1453 31.2436 65.9493 30.9076C65.7626 30.5623 65.5106 30.301 65.1933 30.1236C64.8853 29.9463 64.5493 29.8576 64.1853 29.8576C63.8306 29.8576 63.4946 29.951 63.1773 30.1376C62.8693 30.315 62.6173 30.5763 62.4213 30.9216C62.2346 31.267 62.1413 31.673 62.1413 32.1396C62.1413 32.6063 62.2346 33.0123 62.4213 33.3576C62.6173 33.703 62.8693 33.969 63.1773 34.1556C63.4946 34.333 63.8306 34.4216 64.1853 34.4216C64.5493 34.4216 64.8853 34.3283 65.1933 34.1416C65.5106 33.955 65.7626 33.689 65.9493 33.3436C66.1453 32.9983 66.2433 32.5876 66.2433 32.1116ZM71.6296 25.6576V36.0176H69.6696V25.6576H71.6296ZM77.01 36.1436C76.2634 36.1436 75.5914 35.9803 74.994 35.6536C74.3967 35.3176 73.9254 34.8463 73.58 34.2396C73.244 33.633 73.076 32.933 73.076 32.1396C73.076 31.3463 73.2487 30.6463 73.594 30.0396C73.9487 29.433 74.4294 28.9663 75.036 28.6396C75.6427 28.3036 76.3194 28.1356 77.066 28.1356C77.8127 28.1356 78.4894 28.3036 79.096 28.6396C79.7027 28.9663 80.1787 29.433 80.524 30.0396C80.8787 30.6463 81.056 31.3463 81.056 32.1396C81.056 32.933 80.874 33.633 80.51 34.2396C80.1554 34.8463 79.67 35.3176 79.054 35.6536C78.4474 35.9803 77.766 36.1436 77.01 36.1436ZM77.01 34.4356C77.3647 34.4356 77.696 34.3516 78.004 34.1836C78.3214 34.0063 78.5734 33.745 78.76 33.3996C78.9467 33.0543 79.04 32.6343 79.04 32.1396C79.04 31.4023 78.844 30.8376 78.452 30.4456C78.0694 30.0443 77.598 29.8436 77.038 29.8436C76.478 29.8436 76.0067 30.0443 75.624 30.4456C75.2507 30.8376 75.064 31.4023 75.064 32.1396C75.064 32.877 75.246 33.4463 75.61 33.8476C75.9834 34.2396 76.45 34.4356 77.01 34.4356ZM84.4538 29.4656C84.7058 29.055 85.0324 28.733 85.4338 28.4996C85.8444 28.2663 86.3111 28.1496 86.8338 28.1496V30.2076H86.3158C85.6998 30.2076 85.2331 30.3523 84.9158 30.6416C84.6078 30.931 84.4538 31.435 84.4538 32.1536V36.0176H82.4938V28.2616H84.4538V29.4656ZM95.3639 31.9716C95.3639 32.2516 95.3453 32.5036 95.3079 32.7276H89.6379C89.6846 33.2876 89.8806 33.7263 90.2259 34.0436C90.5713 34.361 90.9959 34.5196 91.4999 34.5196C92.2279 34.5196 92.7459 34.207 93.0539 33.5816H95.1679C94.9439 34.3283 94.5146 34.9443 93.8799 35.4296C93.2453 35.9056 92.4659 36.1436 91.5419 36.1436C90.7953 36.1436 90.1233 35.9803 89.5259 35.6536C88.9379 35.3176 88.4759 34.8463 88.1399 34.2396C87.8133 33.633 87.6499 32.933 87.6499 32.1396C87.6499 31.337 87.8133 30.6323 88.1399 30.0256C88.4666 29.419 88.9239 28.9523 89.5119 28.6256C90.0999 28.299 90.7766 28.1356 91.5419 28.1356C92.2793 28.1356 92.9373 28.2943 93.5159 28.6116C94.1039 28.929 94.5566 29.3816 94.8739 29.9696C95.2006 30.5483 95.3639 31.2156 95.3639 31.9716ZM93.3339 31.4116C93.3246 30.9076 93.1426 30.5063 92.7879 30.2076C92.4333 29.8996 91.9993 29.7456 91.4859 29.7456C91.0006 29.7456 90.5899 29.895 90.2539 30.1936C89.9273 30.483 89.7266 30.889 89.6519 31.4116H93.3339Z" fill="white"/>
<circle cx="123.52" cy="31.6448" r="11.8566" fill="url(#paint0_linear_1_30)"/>
<path d="M125.146 27.1475L129.202 31.1941L129.653 31.6445L129.202 32.0955L125.146 36.1421L124.214 35.2408L127.174 32.2869H116.57V31.002H127.174L124.214 28.0488L125.146 27.1475H125.146Z" fill="#1E1E23"/>
<defs>
<filter id="filter0_d_1_30" x="0" y="0.451294" width="169.788" height="90.5486" filterUnits="userSpaceOnUse" color-interpolation-filters="sRGB">
<feFlood flood-opacity="0" result="BackgroundImageFix"/>
<feColorMatrix in="SourceAlpha" type="matrix" values="0 0 0 0 0 0 0 0 0 0 0 0 0 0 0 0 0 0 127 0" result="hardAlpha"/>
<feMorphology radius="4" operator="erode" in="SourceAlpha" result="effect1_dropShadow_1_30"/>
<feOffset dy="14"/>
<feGaussianBlur stdDeviation="15"/>
<feColorMatrix type="matrix" values="0 0 0 0 0.808333 0 0 0 0 0.808333 0 0 0 0 0.808333 0 0 0 0.5 0"/>
<feBlend mode="normal" in2="BackgroundImageFix" result="effect1_dropShadow_1_30"/>
<feBlend mode="normal" in="SourceGraphic" in2="effect1_dropShadow_1_30" result="shape"/>
</filter>
<linearGradient id="paint0_linear_1_30" x1="135.377" y1="31.6448" x2="111.663" y2="31.6448" gradientUnits="userSpaceOnUse">
<stop stop-color="#00FFA7"/>
<stop offset="1" stop-color="#FFFF00"/>
</linearGradient>
</defs>
</svg>
