<svg width="340" height="15" viewBox="0 0 340 15" fill="none" xmlns="http://www.w3.org/2000/svg">
<path d="M5.67063 1.144C6.62263 1.144 7.46729 1.35867 8.20463 1.788C8.94196 2.208 9.51596 2.796 9.92663 3.552C10.3373 4.308 10.5426 5.16667 10.5426 6.128C10.5426 7.08933 10.3373 7.95267 9.92663 8.718C9.51596 9.474 8.94196 10.0667 8.20463 10.496C7.46729 10.916 6.62263 11.126 5.67063 11.126C4.71863 11.126 3.86929 10.916 3.12263 10.496C2.38529 10.0667 1.81129 9.474 1.40063 8.718C0.989958 7.95267 0.784625 7.08933 0.784625 6.128C0.784625 5.16667 0.989958 4.308 1.40063 3.552C1.81129 2.796 2.38529 2.208 3.12263 1.788C3.86929 1.35867 4.71863 1.144 5.67063 1.144ZM5.67063 1.788C4.82129 1.788 4.07929 1.96533 3.44463 2.32C2.81929 2.67467 2.33396 3.18333 1.98862 3.846C1.65263 4.49933 1.48463 5.26 1.48463 6.128C1.48463 6.996 1.65263 7.75667 1.98862 8.41C2.33396 9.06333 2.81929 9.572 3.44463 9.936C4.07929 10.3 4.82129 10.482 5.67063 10.482C6.51063 10.482 7.24329 10.3 7.86863 9.936C8.50329 9.572 8.98863 9.06333 9.32463 8.41C9.66996 7.75667 9.84263 6.996 9.84263 6.128C9.84263 5.26 9.66996 4.49933 9.32463 3.846C8.98863 3.18333 8.50796 2.67467 7.88263 2.32C7.25729 1.96533 6.51996 1.788 5.67063 1.788ZM5.62863 2.908C5.05929 2.908 4.54129 3.04333 4.07463 3.314C3.60796 3.57533 3.23929 3.94867 2.96863 4.434C2.70729 4.91933 2.57663 5.47933 2.57663 6.114C2.57663 6.74867 2.71196 7.31333 2.98263 7.808C3.25329 8.29333 3.61729 8.67133 4.07463 8.942C4.54129 9.20333 5.05929 9.334 5.62863 9.334C6.33796 9.334 6.94929 9.14733 7.46263 8.774C7.97596 8.39133 8.32129 7.892 8.49863 7.276H7.04263C6.92129 7.57467 6.74863 7.80333 6.52463 7.962C6.30063 8.12067 6.00196 8.2 5.62863 8.2C5.13396 8.2 4.73729 8.02267 4.43863 7.668C4.13996 7.304 3.99063 6.786 3.99063 6.114C3.99063 5.442 4.13996 4.92867 4.43863 4.574C4.73729 4.21933 5.13396 4.042 5.62863 4.042C5.98329 4.042 6.28196 4.12133 6.52463 4.28C6.77663 4.43867 6.94929 4.66733 7.04263 4.966H8.49863C8.32129 4.31267 7.98063 3.80867 7.47663 3.454C6.97263 3.09 6.35663 2.908 5.62863 2.908ZM16.5462 8.83C17.4422 8.05533 18.1469 7.42067 18.6602 6.926C19.1829 6.422 19.6169 5.89933 19.9622 5.358C20.3076 4.81667 20.4802 4.27533 20.4802 3.734C20.4802 3.174 20.3449 2.73533 20.0742 2.418C19.8129 2.10067 19.3976 1.942 18.8282 1.942C18.2776 1.942 17.8482 2.11933 17.5402 2.474C17.2416 2.81933 17.0829 3.286 17.0642 3.874H15.5242C15.5522 2.81 15.8696 1.998 16.4762 1.438C17.0922 0.868666 17.8716 0.584 18.8142 0.584C19.8316 0.584 20.6249 0.864 21.1942 1.424C21.7729 1.984 22.0622 2.73067 22.0622 3.664C22.0622 4.336 21.8896 4.98467 21.5442 5.61C21.2082 6.226 20.8022 6.78133 20.3262 7.276C19.8596 7.76133 19.2622 8.326 18.5342 8.97L17.9042 9.53H22.3422V10.86H15.5382V9.698L16.5462 8.83ZM23.7443 5.764C23.7443 4.14933 24.015 2.88933 24.5563 1.984C25.107 1.06933 26.0496 0.611999 27.3843 0.611999C28.719 0.611999 29.657 1.06933 30.1983 1.984C30.749 2.88933 31.0243 4.14933 31.0243 5.764C31.0243 7.39733 30.749 8.676 30.1983 9.6C29.657 10.5147 28.719 10.972 27.3843 10.972C26.0496 10.972 25.107 10.5147 24.5563 9.6C24.015 8.676 23.7443 7.39733 23.7443 5.764ZM29.4563 5.764C29.4563 5.008 29.405 4.36867 29.3023 3.846C29.209 3.32333 29.013 2.89867 28.7143 2.572C28.4156 2.236 27.9723 2.068 27.3843 2.068C26.7963 2.068 26.353 2.236 26.0543 2.572C25.7556 2.89867 25.555 3.32333 25.4523 3.846C25.359 4.36867 25.3123 5.008 25.3123 5.764C25.3123 6.548 25.359 7.206 25.4523 7.738C25.5456 8.27 25.7416 8.69933 26.0403 9.026C26.3483 9.35267 26.7963 9.516 27.3843 9.516C27.9723 9.516 28.4156 9.35267 28.7143 9.026C29.0223 8.69933 29.223 8.27 29.3163 7.738C29.4096 7.206 29.4563 6.548 29.4563 5.764ZM33.595 8.83C34.491 8.05533 35.1957 7.42067 35.709 6.926C36.2317 6.422 36.6657 5.89933 37.011 5.358C37.3564 4.81667 37.529 4.27533 37.529 3.734C37.529 3.174 37.3937 2.73533 37.123 2.418C36.8617 2.10067 36.4464 1.942 35.877 1.942C35.3264 1.942 34.897 2.11933 34.589 2.474C34.2904 2.81933 34.1317 3.286 34.113 3.874H32.573C32.601 2.81 32.9184 1.998 33.525 1.438C34.141 0.868666 34.9204 0.584 35.863 0.584C36.8804 0.584 37.6737 0.864 38.243 1.424C38.8217 1.984 39.111 2.73067 39.111 3.664C39.111 4.336 38.9384 4.98467 38.593 5.61C38.257 6.226 37.851 6.78133 37.375 7.276C36.9084 7.76133 36.311 8.326 35.583 8.97L34.953 9.53H39.391V10.86H32.587V9.698L33.595 8.83ZM40.5971 8.872V7.668L45.3011 0.92H47.2331V7.486H48.5351V8.872H47.2331V11H45.6651V8.872H40.5971ZM45.7351 2.544L42.4311 7.486H45.7351V2.544ZM59.5703 9.012H55.4963L54.7963 11H53.1303L56.6163 1.256H58.4643L61.9503 11H60.2703L59.5703 9.012ZM59.1223 7.71L57.5403 3.188L55.9443 7.71H59.1223ZM65.062 0.64V11H63.466V0.64H65.062ZM68.7534 0.64V11H67.1574V0.64H68.7534ZM79.5395 11L77.2995 7.108H76.0815V11H74.4855V1.27H77.8455C78.5922 1.27 79.2222 1.40067 79.7355 1.662C80.2582 1.92333 80.6455 2.27333 80.8975 2.712C81.1589 3.15067 81.2895 3.64067 81.2895 4.182C81.2895 4.81667 81.1029 5.39533 80.7295 5.918C80.3655 6.43133 79.8009 6.78133 79.0355 6.968L81.4435 11H79.5395ZM76.0815 5.834H77.8455C78.4429 5.834 78.8909 5.68467 79.1895 5.386C79.4975 5.08733 79.6515 4.686 79.6515 4.182C79.6515 3.678 79.5022 3.286 79.2035 3.006C78.9049 2.71667 78.4522 2.572 77.8455 2.572H76.0815V5.834ZM84.1433 2.264C83.8539 2.264 83.6113 2.166 83.4153 1.97C83.2193 1.774 83.1213 1.53133 83.1213 1.242C83.1213 0.952666 83.2193 0.71 83.4153 0.514C83.6113 0.318 83.8539 0.219999 84.1433 0.219999C84.4233 0.219999 84.6613 0.318 84.8573 0.514C85.0533 0.71 85.1513 0.952666 85.1513 1.242C85.1513 1.53133 85.0533 1.774 84.8573 1.97C84.6613 2.166 84.4233 2.264 84.1433 2.264ZM84.9273 3.286V11H83.3313V3.286H84.9273ZM90.1307 3.16C90.728 3.16 91.2553 3.28133 91.7127 3.524C92.1793 3.75733 92.5433 4.05133 92.8047 4.406V3.286H94.4147V11.126C94.4147 11.8353 94.2653 12.4653 93.9667 13.016C93.668 13.576 93.234 14.0147 92.6647 14.332C92.1047 14.6493 91.4327 14.808 90.6487 14.808C89.6033 14.808 88.7353 14.5607 88.0447 14.066C87.354 13.5807 86.962 12.918 86.8687 12.078H88.4507C88.572 12.4793 88.8287 12.8013 89.2207 13.044C89.622 13.296 90.098 13.422 90.6487 13.422C91.2927 13.422 91.8107 13.226 92.2027 12.834C92.604 12.442 92.8047 11.8727 92.8047 11.126V9.838C92.534 10.202 92.1653 10.51 91.6987 10.762C91.2413 11.0047 90.7187 11.126 90.1307 11.126C89.4587 11.126 88.8427 10.958 88.2827 10.622C87.732 10.2767 87.2933 9.80067 86.9667 9.194C86.6493 8.578 86.4907 7.88267 86.4907 7.108C86.4907 6.33333 86.6493 5.64733 86.9667 5.05C87.2933 4.45267 87.732 3.99067 88.2827 3.664C88.8427 3.328 89.4587 3.16 90.1307 3.16ZM92.8047 7.136C92.8047 6.604 92.6927 6.142 92.4687 5.75C92.254 5.358 91.9693 5.05933 91.6147 4.854C91.26 4.64867 90.8773 4.546 90.4667 4.546C90.056 4.546 89.6733 4.64867 89.3187 4.854C88.964 5.05 88.6747 5.344 88.4507 5.736C88.236 6.11867 88.1287 6.576 88.1287 7.108C88.1287 7.64 88.236 8.10667 88.4507 8.508C88.6747 8.90933 88.964 9.21733 89.3187 9.432C89.6827 9.63733 90.0653 9.74 90.4667 9.74C90.8773 9.74 91.26 9.63733 91.6147 9.432C91.9693 9.22667 92.254 8.928 92.4687 8.536C92.6927 8.13467 92.8047 7.668 92.8047 7.136ZM100.501 3.16C101.089 3.16 101.612 3.286 102.069 3.538C102.536 3.79 102.9 4.16333 103.161 4.658C103.432 5.15267 103.567 5.75 103.567 6.45V11H101.985V6.688C101.985 5.99733 101.812 5.47 101.467 5.106C101.122 4.73267 100.65 4.546 100.053 4.546C99.4556 4.546 98.9796 4.73267 98.6249 5.106C98.2796 5.47 98.1069 5.99733 98.1069 6.688V11H96.5109V0.64H98.1069V4.182C98.3776 3.85533 98.7183 3.60333 99.1289 3.426C99.5489 3.24867 100.006 3.16 100.501 3.16ZM107.465 4.588V8.858C107.465 9.14733 107.53 9.35733 107.661 9.488C107.801 9.60933 108.034 9.67 108.361 9.67H109.341V11H108.081C107.362 11 106.811 10.832 106.429 10.496C106.046 10.16 105.855 9.614 105.855 8.858V4.588H104.945V3.286H105.855V1.368H107.465V3.286H109.341V4.588H107.465ZM113.612 11.126C113.005 11.126 112.459 11.0187 111.974 10.804C111.498 10.58 111.12 10.2813 110.84 9.908C110.56 9.52533 110.41 9.10067 110.392 8.634H112.044C112.072 8.96067 112.226 9.236 112.506 9.46C112.795 9.67467 113.154 9.782 113.584 9.782C114.032 9.782 114.377 9.698 114.62 9.53C114.872 9.35267 114.998 9.12867 114.998 8.858C114.998 8.56867 114.858 8.354 114.578 8.214C114.307 8.074 113.873 7.92 113.276 7.752C112.697 7.59333 112.226 7.43933 111.862 7.29C111.498 7.14067 111.18 6.912 110.91 6.604C110.648 6.296 110.518 5.89 110.518 5.386C110.518 4.97533 110.639 4.602 110.882 4.266C111.124 3.92067 111.47 3.65 111.918 3.454C112.375 3.258 112.898 3.16 113.486 3.16C114.363 3.16 115.068 3.384 115.6 3.832C116.141 4.27067 116.43 4.87267 116.468 5.638H114.872C114.844 5.29267 114.704 5.01733 114.452 4.812C114.2 4.60667 113.859 4.504 113.43 4.504C113.01 4.504 112.688 4.58333 112.464 4.742C112.24 4.90067 112.128 5.11067 112.128 5.372C112.128 5.57733 112.202 5.75 112.352 5.89C112.501 6.03 112.683 6.142 112.898 6.226C113.112 6.30067 113.43 6.39867 113.85 6.52C114.41 6.66933 114.867 6.82333 115.222 6.982C115.586 7.13133 115.898 7.35533 116.16 7.654C116.421 7.95267 116.556 8.34933 116.566 8.844C116.566 9.28267 116.444 9.67467 116.202 10.02C115.959 10.3653 115.614 10.636 115.166 10.832C114.727 11.028 114.209 11.126 113.612 11.126ZM126.981 11L124.741 7.108H123.523V11H121.927V1.27H125.287C126.034 1.27 126.664 1.40067 127.177 1.662C127.7 1.92333 128.087 2.27333 128.339 2.712C128.6 3.15067 128.731 3.64067 128.731 4.182C128.731 4.81667 128.544 5.39533 128.171 5.918C127.807 6.43133 127.242 6.78133 126.477 6.968L128.885 11H126.981ZM123.523 5.834H125.287C125.884 5.834 126.332 5.68467 126.631 5.386C126.939 5.08733 127.093 4.686 127.093 4.182C127.093 3.678 126.944 3.286 126.645 3.006C126.346 2.71667 125.894 2.572 125.287 2.572H123.523V5.834ZM137.843 6.954C137.843 7.24333 137.824 7.50467 137.787 7.738H131.893C131.939 8.354 132.168 8.84867 132.579 9.222C132.989 9.59533 133.493 9.782 134.091 9.782C134.949 9.782 135.556 9.42267 135.911 8.704H137.633C137.399 9.41333 136.975 9.99667 136.359 10.454C135.752 10.902 134.996 11.126 134.091 11.126C133.353 11.126 132.691 10.9627 132.103 10.636C131.524 10.3 131.067 9.83333 130.731 9.236C130.404 8.62933 130.241 7.92933 130.241 7.136C130.241 6.34267 130.399 5.64733 130.717 5.05C131.043 4.44333 131.496 3.97667 132.075 3.65C132.663 3.32333 133.335 3.16 134.091 3.16C134.819 3.16 135.467 3.31867 136.037 3.636C136.606 3.95333 137.049 4.40133 137.367 4.98C137.684 5.54933 137.843 6.20733 137.843 6.954ZM136.177 6.45C136.167 5.862 135.957 5.39067 135.547 5.036C135.136 4.68133 134.627 4.504 134.021 4.504C133.47 4.504 132.999 4.68133 132.607 5.036C132.215 5.38133 131.981 5.85267 131.907 6.45H136.177ZM142.213 11.126C141.607 11.126 141.061 11.0187 140.575 10.804C140.099 10.58 139.721 10.2813 139.441 9.908C139.161 9.52533 139.012 9.10067 138.993 8.634H140.645C140.673 8.96067 140.827 9.236 141.107 9.46C141.397 9.67467 141.756 9.782 142.185 9.782C142.633 9.782 142.979 9.698 143.221 9.53C143.473 9.35267 143.599 9.12867 143.599 8.858C143.599 8.56867 143.459 8.354 143.179 8.214C142.909 8.074 142.475 7.92 141.877 7.752C141.299 7.59333 140.827 7.43933 140.463 7.29C140.099 7.14067 139.782 6.912 139.511 6.604C139.25 6.296 139.119 5.89 139.119 5.386C139.119 4.97533 139.241 4.602 139.483 4.266C139.726 3.92067 140.071 3.65 140.519 3.454C140.977 3.258 141.499 3.16 142.087 3.16C142.965 3.16 143.669 3.384 144.201 3.832C144.743 4.27067 145.032 4.87267 145.069 5.638H143.473C143.445 5.29267 143.305 5.01733 143.053 4.812C142.801 4.60667 142.461 4.504 142.031 4.504C141.611 4.504 141.289 4.58333 141.065 4.742C140.841 4.90067 140.729 5.11067 140.729 5.372C140.729 5.57733 140.804 5.75 140.953 5.89C141.103 6.03 141.285 6.142 141.499 6.226C141.714 6.30067 142.031 6.39867 142.451 6.52C143.011 6.66933 143.469 6.82333 143.823 6.982C144.187 7.13133 144.5 7.35533 144.761 7.654C145.023 7.95267 145.158 8.34933 145.167 8.844C145.167 9.28267 145.046 9.67467 144.803 10.02C144.561 10.3653 144.215 10.636 143.767 10.832C143.329 11.028 142.811 11.126 142.213 11.126ZM153.962 6.954C153.962 7.24333 153.943 7.50467 153.906 7.738H148.012C148.058 8.354 148.287 8.84867 148.698 9.222C149.108 9.59533 149.612 9.782 150.21 9.782C151.068 9.782 151.675 9.42267 152.03 8.704H153.752C153.518 9.41333 153.094 9.99667 152.478 10.454C151.871 10.902 151.115 11.126 150.21 11.126C149.472 11.126 148.81 10.9627 148.222 10.636C147.643 10.3 147.186 9.83333 146.85 9.236C146.523 8.62933 146.36 7.92933 146.36 7.136C146.36 6.34267 146.518 5.64733 146.836 5.05C147.162 4.44333 147.615 3.97667 148.194 3.65C148.782 3.32333 149.454 3.16 150.21 3.16C150.938 3.16 151.586 3.31867 152.156 3.636C152.725 3.95333 153.168 4.40133 153.486 4.98C153.803 5.54933 153.962 6.20733 153.962 6.954ZM152.296 6.45C152.286 5.862 152.076 5.39067 151.666 5.036C151.255 4.68133 150.746 4.504 150.14 4.504C149.589 4.504 149.118 4.68133 148.726 5.036C148.334 5.38133 148.1 5.85267 148.026 6.45H152.296ZM157.128 4.406C157.362 4.014 157.67 3.71067 158.052 3.496C158.444 3.272 158.906 3.16 159.438 3.16V4.812H159.032C158.407 4.812 157.931 4.97067 157.604 5.288C157.287 5.60533 157.128 6.156 157.128 6.94V11H155.532V3.286H157.128V4.406ZM163.887 9.572L166.071 3.286H167.765L164.825 11H162.921L159.995 3.286H161.703L163.887 9.572ZM176.042 6.954C176.042 7.24333 176.023 7.50467 175.986 7.738H170.092C170.139 8.354 170.367 8.84867 170.778 9.222C171.189 9.59533 171.693 9.782 172.29 9.782C173.149 9.782 173.755 9.42267 174.11 8.704H175.832C175.599 9.41333 175.174 9.99667 174.558 10.454C173.951 10.902 173.195 11.126 172.29 11.126C171.553 11.126 170.89 10.9627 170.302 10.636C169.723 10.3 169.266 9.83333 168.93 9.236C168.603 8.62933 168.44 7.92933 168.44 7.136C168.44 6.34267 168.599 5.64733 168.916 5.05C169.243 4.44333 169.695 3.97667 170.274 3.65C170.862 3.32333 171.534 3.16 172.29 3.16C173.018 3.16 173.667 3.31867 174.236 3.636C174.805 3.95333 175.249 4.40133 175.566 4.98C175.883 5.54933 176.042 6.20733 176.042 6.954ZM174.376 6.45C174.367 5.862 174.157 5.39067 173.746 5.036C173.335 4.68133 172.827 4.504 172.22 4.504C171.669 4.504 171.198 4.68133 170.806 5.036C170.414 5.38133 170.181 5.85267 170.106 6.45H174.376ZM177.081 7.108C177.081 6.33333 177.239 5.64733 177.557 5.05C177.883 4.45267 178.322 3.99067 178.873 3.664C179.433 3.328 180.053 3.16 180.735 3.16C181.239 3.16 181.733 3.272 182.219 3.496C182.713 3.71067 183.105 4 183.395 4.364V0.64H185.005V11H183.395V9.838C183.133 10.2113 182.769 10.5193 182.303 10.762C181.845 11.0047 181.318 11.126 180.721 11.126C180.049 11.126 179.433 10.958 178.873 10.622C178.322 10.2767 177.883 9.80067 177.557 9.194C177.239 8.578 177.081 7.88267 177.081 7.108ZM183.395 7.136C183.395 6.604 183.283 6.142 183.059 5.75C182.844 5.358 182.559 5.05933 182.205 4.854C181.85 4.64867 181.467 4.546 181.057 4.546C180.646 4.546 180.263 4.64867 179.909 4.854C179.554 5.05 179.265 5.344 179.041 5.736C178.826 6.11867 178.719 6.576 178.719 7.108C178.719 7.64 178.826 8.10667 179.041 8.508C179.265 8.90933 179.554 9.21733 179.909 9.432C180.273 9.63733 180.655 9.74 181.057 9.74C181.467 9.74 181.85 9.63733 182.205 9.432C182.559 9.22667 182.844 8.928 183.059 8.536C183.283 8.13467 183.395 7.668 183.395 7.136ZM196.66 5.26V6.604H190.906V5.26H196.66ZM205.668 6.114C205.668 5.162 205.888 4.308 206.326 3.552C206.774 2.796 207.376 2.208 208.132 1.788C208.898 1.35867 209.733 1.144 210.638 1.144C211.674 1.144 212.594 1.40067 213.396 1.914C214.208 2.418 214.796 3.13667 215.16 4.07H213.242C212.99 3.55667 212.64 3.174 212.192 2.922C211.744 2.67 211.226 2.544 210.638 2.544C209.994 2.544 209.42 2.68867 208.916 2.978C208.412 3.26733 208.016 3.68267 207.726 4.224C207.446 4.76533 207.306 5.39533 207.306 6.114C207.306 6.83267 207.446 7.46267 207.726 8.004C208.016 8.54533 208.412 8.96533 208.916 9.264C209.42 9.55333 209.994 9.698 210.638 9.698C211.226 9.698 211.744 9.572 212.192 9.32C212.64 9.068 212.99 8.68533 213.242 8.172H215.16C214.796 9.10533 214.208 9.824 213.396 10.328C212.594 10.832 211.674 11.084 210.638 11.084C209.724 11.084 208.888 10.874 208.132 10.454C207.376 10.0247 206.774 9.432 206.326 8.676C205.888 7.92 205.668 7.066 205.668 6.114ZM221.019 3.16C221.607 3.16 222.129 3.286 222.587 3.538C223.053 3.79 223.417 4.16333 223.679 4.658C223.949 5.15267 224.085 5.75 224.085 6.45V11H222.503V6.688C222.503 5.99733 222.33 5.47 221.985 5.106C221.639 4.73267 221.168 4.546 220.571 4.546C219.973 4.546 219.497 4.73267 219.143 5.106C218.797 5.47 218.625 5.99733 218.625 6.688V11H217.029V0.64H218.625V4.182C218.895 3.85533 219.236 3.60333 219.647 3.426C220.067 3.24867 220.524 3.16 221.019 3.16ZM225.588 7.108C225.588 6.33333 225.747 5.64733 226.064 5.05C226.391 4.45267 226.83 3.99067 227.38 3.664C227.94 3.328 228.556 3.16 229.228 3.16C229.835 3.16 230.362 3.28133 230.81 3.524C231.268 3.75733 231.632 4.05133 231.902 4.406V3.286H233.512V11H231.902V9.852C231.632 10.216 231.263 10.5193 230.796 10.762C230.33 11.0047 229.798 11.126 229.2 11.126C228.538 11.126 227.931 10.958 227.38 10.622C226.83 10.2767 226.391 9.80067 226.064 9.194C225.747 8.578 225.588 7.88267 225.588 7.108ZM231.902 7.136C231.902 6.604 231.79 6.142 231.566 5.75C231.352 5.358 231.067 5.05933 230.712 4.854C230.358 4.64867 229.975 4.546 229.564 4.546C229.154 4.546 228.771 4.64867 228.416 4.854C228.062 5.05 227.772 5.344 227.548 5.736C227.334 6.11867 227.226 6.576 227.226 7.108C227.226 7.64 227.334 8.10667 227.548 8.508C227.772 8.90933 228.062 9.21733 228.416 9.432C228.78 9.63733 229.163 9.74 229.564 9.74C229.975 9.74 230.358 9.63733 230.712 9.432C231.067 9.22667 231.352 8.928 231.566 8.536C231.79 8.13467 231.902 7.668 231.902 7.136ZM236.421 2.264C236.131 2.264 235.889 2.166 235.693 1.97C235.497 1.774 235.399 1.53133 235.399 1.242C235.399 0.952666 235.497 0.71 235.693 0.514C235.889 0.318 236.131 0.219999 236.421 0.219999C236.701 0.219999 236.939 0.318 237.135 0.514C237.331 0.71 237.429 0.952666 237.429 1.242C237.429 1.53133 237.331 1.774 237.135 1.97C236.939 2.166 236.701 2.264 236.421 2.264ZM237.205 3.286V11H235.609V3.286H237.205ZM243.192 3.16C243.799 3.16 244.34 3.286 244.816 3.538C245.301 3.79 245.679 4.16333 245.95 4.658C246.221 5.15267 246.356 5.75 246.356 6.45V11H244.774V6.688C244.774 5.99733 244.601 5.47 244.256 5.106C243.911 4.73267 243.439 4.546 242.842 4.546C242.245 4.546 241.769 4.73267 241.414 5.106C241.069 5.47 240.896 5.99733 240.896 6.688V11H239.3V3.286H240.896V4.168C241.157 3.85067 241.489 3.60333 241.89 3.426C242.301 3.24867 242.735 3.16 243.192 3.16ZM250.254 4.588V8.858C250.254 9.14733 250.319 9.35733 250.45 9.488C250.59 9.60933 250.823 9.67 251.15 9.67H252.13V11H250.87C250.151 11 249.6 10.832 249.218 10.496C248.835 10.16 248.644 9.614 248.644 8.858V4.588H247.734V3.286H248.644V1.368H250.254V3.286H252.13V4.588H250.254ZM260.671 6.954C260.671 7.24333 260.652 7.50467 260.615 7.738H254.721C254.767 8.354 254.996 8.84867 255.407 9.222C255.817 9.59533 256.321 9.782 256.919 9.782C257.777 9.782 258.384 9.42267 258.739 8.704H260.461C260.227 9.41333 259.803 9.99667 259.187 10.454C258.58 10.902 257.824 11.126 256.919 11.126C256.181 11.126 255.519 10.9627 254.931 10.636C254.352 10.3 253.895 9.83333 253.559 9.236C253.232 8.62933 253.069 7.92933 253.069 7.136C253.069 6.34267 253.227 5.64733 253.545 5.05C253.871 4.44333 254.324 3.97667 254.903 3.65C255.491 3.32333 256.163 3.16 256.919 3.16C257.647 3.16 258.295 3.31867 258.865 3.636C259.434 3.95333 259.877 4.40133 260.195 4.98C260.512 5.54933 260.671 6.20733 260.671 6.954ZM259.005 6.45C258.995 5.862 258.785 5.39067 258.375 5.036C257.964 4.68133 257.455 4.504 256.849 4.504C256.298 4.504 255.827 4.68133 255.435 5.036C255.043 5.38133 254.809 5.85267 254.735 6.45H259.005ZM261.709 7.136C261.709 6.34267 261.868 5.64733 262.185 5.05C262.512 4.44333 262.96 3.97667 263.529 3.65C264.099 3.32333 264.752 3.16 265.489 3.16C266.423 3.16 267.193 3.384 267.799 3.832C268.415 4.27067 268.831 4.90067 269.045 5.722H267.323C267.183 5.33933 266.959 5.04067 266.651 4.826C266.343 4.61133 265.956 4.504 265.489 4.504C264.836 4.504 264.313 4.73733 263.921 5.204C263.539 5.66133 263.347 6.30533 263.347 7.136C263.347 7.96667 263.539 8.61533 263.921 9.082C264.313 9.54867 264.836 9.782 265.489 9.782C266.413 9.782 267.025 9.376 267.323 8.564H269.045C268.821 9.348 268.401 9.97333 267.785 10.44C267.169 10.8973 266.404 11.126 265.489 11.126C264.752 11.126 264.099 10.9627 263.529 10.636C262.96 10.3 262.512 9.83333 262.185 9.236C261.868 8.62933 261.709 7.92933 261.709 7.136ZM274.626 3.16C275.214 3.16 275.737 3.286 276.194 3.538C276.661 3.79 277.025 4.16333 277.286 4.658C277.557 5.15267 277.692 5.75 277.692 6.45V11H276.11V6.688C276.11 5.99733 275.937 5.47 275.592 5.106C275.247 4.73267 274.775 4.546 274.178 4.546C273.581 4.546 273.105 4.73267 272.75 5.106C272.405 5.47 272.232 5.99733 272.232 6.688V11H270.636V0.64H272.232V4.182C272.503 3.85533 272.843 3.60333 273.254 3.426C273.674 3.24867 274.131 3.16 274.626 3.16ZM291.358 11H289.762L284.96 3.734V11H283.364V1.256H284.96L289.762 8.508V1.256H291.358V11ZM300.524 6.954C300.524 7.24333 300.506 7.50467 300.468 7.738H294.574C294.621 8.354 294.85 8.84867 295.26 9.222C295.671 9.59533 296.175 9.782 296.772 9.782C297.631 9.782 298.238 9.42267 298.592 8.704H300.314C300.081 9.41333 299.656 9.99667 299.04 10.454C298.434 10.902 297.678 11.126 296.772 11.126C296.035 11.126 295.372 10.9627 294.784 10.636C294.206 10.3 293.748 9.83333 293.412 9.236C293.086 8.62933 292.922 7.92933 292.922 7.136C292.922 6.34267 293.081 5.64733 293.398 5.05C293.725 4.44333 294.178 3.97667 294.756 3.65C295.344 3.32333 296.016 3.16 296.772 3.16C297.5 3.16 298.149 3.31867 298.718 3.636C299.288 3.95333 299.731 4.40133 300.048 4.98C300.366 5.54933 300.524 6.20733 300.524 6.954ZM298.858 6.45C298.849 5.862 298.639 5.39067 298.228 5.036C297.818 4.68133 297.309 4.504 296.702 4.504C296.152 4.504 295.68 4.68133 295.288 5.036C294.896 5.38133 294.663 5.85267 294.588 6.45H298.858ZM303.957 4.588V8.858C303.957 9.14733 304.022 9.35733 304.153 9.488C304.293 9.60933 304.526 9.67 304.853 9.67H305.833V11H304.573C303.854 11 303.304 10.832 302.921 10.496C302.538 10.16 302.347 9.614 302.347 8.858V4.588H301.437V3.286H302.347V1.368H303.957V3.286H305.833V4.588H303.957ZM317.664 3.286L315.27 11H313.59L312.036 5.302L310.482 11H308.802L306.394 3.286H308.018L309.628 9.488L311.266 3.286H312.932L314.5 9.46L316.096 3.286H317.664ZM322.203 11.126C321.475 11.126 320.817 10.9627 320.229 10.636C319.641 10.3 319.179 9.83333 318.843 9.236C318.507 8.62933 318.339 7.92933 318.339 7.136C318.339 6.352 318.511 5.65667 318.857 5.05C319.202 4.44333 319.673 3.97667 320.271 3.65C320.868 3.32333 321.535 3.16 322.273 3.16C323.01 3.16 323.677 3.32333 324.275 3.65C324.872 3.97667 325.343 4.44333 325.689 5.05C326.034 5.65667 326.207 6.352 326.207 7.136C326.207 7.92 326.029 8.61533 325.675 9.222C325.32 9.82867 324.835 10.3 324.219 10.636C323.612 10.9627 322.94 11.126 322.203 11.126ZM322.203 9.74C322.613 9.74 322.996 9.642 323.351 9.446C323.715 9.25 324.009 8.956 324.233 8.564C324.457 8.172 324.569 7.696 324.569 7.136C324.569 6.576 324.461 6.10467 324.247 5.722C324.032 5.33 323.747 5.036 323.393 4.84C323.038 4.644 322.655 4.546 322.245 4.546C321.834 4.546 321.451 4.644 321.097 4.84C320.751 5.036 320.476 5.33 320.271 5.722C320.065 6.10467 319.963 6.576 319.963 7.136C319.963 7.96667 320.173 8.61067 320.593 9.068C321.022 9.516 321.559 9.74 322.203 9.74ZM329.38 4.406C329.614 4.014 329.922 3.71067 330.304 3.496C330.696 3.272 331.158 3.16 331.69 3.16V4.812H331.284C330.659 4.812 330.183 4.97067 329.856 5.288C329.539 5.60533 329.38 6.156 329.38 6.94V11H327.784V3.286H329.38V4.406ZM336.209 7.15L339.765 11H337.609L334.753 7.682V11H333.157V0.64H334.753V6.66L337.553 3.286H339.765L336.209 7.15Z" fill="#98A6AC"/>
</svg>
