<svg width="163" height="72" viewBox="0 0 163 72" fill="none" xmlns="http://www.w3.org/2000/svg">
<g filter="url(#filter0_bd_1_96)">
<rect width="117.788" height="38.5487" rx="19.2743" transform="matrix(1 0 0 -1 23 57.5486)" fill="url(#paint0_linear_1_96)" shape-rendering="crispEdges"/>
<rect x="1" y="-1" width="115.788" height="36.5487" rx="18.2743" transform="matrix(1 0 0 -1 23 55.5486)" stroke="black" stroke-width="2" shape-rendering="crispEdges"/>
</g>
<path d="M44.1295 34.3763V36.8263H47.4195V38.3803H44.1295V40.9703H47.8395V42.5663H42.1695V32.7803H47.8395V34.3763H44.1295ZM53.9047 42.5663L52.3087 40.1583L50.8947 42.5663H48.7947L51.3287 38.6743L48.7667 34.8103H50.9787L52.5607 37.2043L53.9887 34.8103H56.0887L53.5407 38.6743L56.1167 42.5663H53.9047ZM59.1413 35.9303C59.3933 35.5757 59.7386 35.2817 60.1773 35.0483C60.6253 34.8057 61.1339 34.6843 61.7033 34.6843C62.3659 34.6843 62.9633 34.8477 63.4953 35.1743C64.0366 35.501 64.4613 35.9677 64.7693 36.5743C65.0866 37.1717 65.2453 37.867 65.2453 38.6603C65.2453 39.4537 65.0866 40.1583 64.7693 40.7743C64.4613 41.381 64.0366 41.8523 63.4953 42.1883C62.9633 42.5243 62.3659 42.6923 61.7033 42.6923C61.1339 42.6923 60.6299 42.5757 60.1913 42.3423C59.7619 42.109 59.4119 41.815 59.1413 41.4603V46.2623H57.1813V34.8103H59.1413V35.9303ZM63.2433 38.6603C63.2433 38.1937 63.1453 37.7923 62.9493 37.4563C62.7626 37.111 62.5106 36.8497 62.1933 36.6723C61.8853 36.495 61.5493 36.4063 61.1853 36.4063C60.8306 36.4063 60.4946 36.4997 60.1773 36.6863C59.8693 36.8637 59.6173 37.125 59.4213 37.4703C59.2346 37.8157 59.1413 38.2217 59.1413 38.6883C59.1413 39.155 59.2346 39.561 59.4213 39.9063C59.6173 40.2517 59.8693 40.5177 60.1773 40.7043C60.4946 40.8817 60.8306 40.9703 61.1853 40.9703C61.5493 40.9703 61.8853 40.877 62.1933 40.6903C62.5106 40.5037 62.7626 40.2377 62.9493 39.8923C63.1453 39.547 63.2433 39.1363 63.2433 38.6603ZM68.6295 32.2063V42.5663H66.6695V32.2063H68.6295ZM74.01 42.6923C73.2634 42.6923 72.5914 42.529 71.994 42.2023C71.3967 41.8663 70.9254 41.395 70.58 40.7883C70.244 40.1817 70.076 39.4817 70.076 38.6883C70.076 37.895 70.2487 37.195 70.594 36.5883C70.9487 35.9817 71.4294 35.515 72.036 35.1883C72.6427 34.8523 73.3194 34.6843 74.066 34.6843C74.8127 34.6843 75.4894 34.8523 76.096 35.1883C76.7027 35.515 77.1787 35.9817 77.524 36.5883C77.8787 37.195 78.056 37.895 78.056 38.6883C78.056 39.4817 77.874 40.1817 77.51 40.7883C77.1554 41.395 76.67 41.8663 76.054 42.2023C75.4474 42.529 74.766 42.6923 74.01 42.6923ZM74.01 40.9843C74.3647 40.9843 74.696 40.9003 75.004 40.7323C75.3214 40.555 75.5734 40.2937 75.76 39.9483C75.9467 39.603 76.04 39.183 76.04 38.6883C76.04 37.951 75.844 37.3863 75.452 36.9943C75.0694 36.593 74.598 36.3923 74.038 36.3923C73.478 36.3923 73.0067 36.593 72.624 36.9943C72.2507 37.3863 72.064 37.951 72.064 38.6883C72.064 39.4257 72.246 39.995 72.61 40.3963C72.9834 40.7883 73.45 40.9843 74.01 40.9843ZM81.4538 36.0143C81.7058 35.6037 82.0324 35.2817 82.4338 35.0483C82.8444 34.815 83.3111 34.6983 83.8338 34.6983V36.7563H83.3158C82.6998 36.7563 82.2331 36.901 81.9158 37.1903C81.6078 37.4797 81.4538 37.9837 81.4538 38.7023V42.5663H79.4938V34.8103H81.4538V36.0143ZM92.3639 38.5203C92.3639 38.8003 92.3452 39.0523 92.3079 39.2763H86.6379C86.6846 39.8363 86.8806 40.275 87.2259 40.5923C87.5712 40.9097 87.9959 41.0683 88.4999 41.0683C89.2279 41.0683 89.7459 40.7557 90.0539 40.1303H92.1679C91.9439 40.877 91.5146 41.493 90.8799 41.9783C90.2452 42.4543 89.4659 42.6923 88.5419 42.6923C87.7952 42.6923 87.1232 42.529 86.5259 42.2023C85.9379 41.8663 85.4759 41.395 85.1399 40.7883C84.8132 40.1817 84.6499 39.4817 84.6499 38.6883C84.6499 37.8857 84.8132 37.181 85.1399 36.5743C85.4666 35.9677 85.9239 35.501 86.5119 35.1743C87.0999 34.8477 87.7766 34.6843 88.5419 34.6843C89.2792 34.6843 89.9372 34.843 90.5159 35.1603C91.1039 35.4777 91.5566 35.9303 91.8739 36.5183C92.2006 37.097 92.3639 37.7643 92.3639 38.5203ZM90.3339 37.9603C90.3246 37.4563 90.1426 37.055 89.7879 36.7563C89.4332 36.4483 88.9992 36.2943 88.4859 36.2943C88.0006 36.2943 87.5899 36.4437 87.2539 36.7423C86.9272 37.0317 86.7266 37.4377 86.6519 37.9603H90.3339Z" fill="black"/>
<circle cx="120.52" cy="38.1935" r="11.8566" fill="url(#paint1_linear_1_96)"/>
<path d="M122.146 33.6962L126.202 37.7428L126.653 38.1932L126.202 38.6442L122.146 42.6908L121.214 41.7895L124.174 38.8356H113.57V37.5507H124.174L121.214 34.5975L122.146 33.6962H122.146Z" fill="#1E1E23"/>
<defs>
<filter id="filter0_bd_1_96" x="0" y="0" width="163.788" height="84.5486" filterUnits="userSpaceOnUse" color-interpolation-filters="sRGB">
<feFlood flood-opacity="0" result="BackgroundImageFix"/>
<feGaussianBlur in="BackgroundImageFix" stdDeviation="5"/>
<feComposite in2="SourceAlpha" operator="in" result="effect1_backgroundBlur_1_96"/>
<feColorMatrix in="SourceAlpha" type="matrix" values="0 0 0 0 0 0 0 0 0 0 0 0 0 0 0 0 0 0 127 0" result="hardAlpha"/>
<feMorphology radius="1" operator="erode" in="SourceAlpha" result="effect2_dropShadow_1_96"/>
<feOffset dy="4"/>
<feGaussianBlur stdDeviation="12"/>
<feComposite in2="hardAlpha" operator="out"/>
<feColorMatrix type="matrix" values="0 0 0 0 1 0 0 0 0 1 0 0 0 0 1 0 0 0 1 0"/>
<feBlend mode="normal" in2="effect1_backgroundBlur_1_96" result="effect2_dropShadow_1_96"/>
<feBlend mode="normal" in="SourceGraphic" in2="effect2_dropShadow_1_96" result="shape"/>
</filter>
<linearGradient id="paint0_linear_1_96" x1="58.8938" y1="0" x2="58.8938" y2="38.5487" gradientUnits="userSpaceOnUse">
<stop stop-color="white" stop-opacity="0.4"/>
<stop offset="0.0001" stop-color="white"/>
<stop offset="1" stop-color="white"/>
</linearGradient>
<linearGradient id="paint1_linear_1_96" x1="132.377" y1="38.1935" x2="108.663" y2="38.1935" gradientUnits="userSpaceOnUse">
<stop stop-color="#00FFA7"/>
<stop offset="1" stop-color="#FFFF00"/>
</linearGradient>
</defs>
</svg>
